<svg width="1931" height="415" viewBox="0 0 1931 415" fill="none" xmlns="http://www.w3.org/2000/svg"><g clip-path="url(#a)"><g opacity=".5" fill="currentColor"><path d="M1448.1 276.7c38.1 0 68.9-30.9 68.9-68.9 0-38-30.9-68.9-68.9-68.9-38.1 0-69 30.9-69 68.9 0 38 30.9 68.9 69 68.9Zm413.7-137.8c38.1 0 68.9-30.9 68.9-68.9 0-38.1-30.9-68.9-68.9-68.9-38.1 0-68.9 30.9-68.9 68.9-.1 38 30.8 68.9 68.9 68.9Z"/><path d="M1241.3 276.7h-137.9v137.9h137.9V276.7Z" fill-opacity=".3"/><path d="M1792.8 1h-137.9v137.9h137.9V1Z" fill-opacity=".75"/><path d="M1103.4 138.9v137.9H965.5c0-76.1 61.8-137.9 137.9-137.9Z" fill-opacity=".3"/><path d="M1654.9 276.7v137.9H1517c0-76 61.9-137.9 137.9-137.9Z"/><path d="M1792.8 276.7h-137.9V138.9c76.1 0 137.9 61.8 137.9 137.8Z" fill-opacity=".5"/><path d="M1379.2 138.9h-137.9v137.9h137.9V138.9Z" fill-opacity=".75"/><path d="M1654.9 138.9H1517v137.9h137.9V138.9Z" fill-opacity=".3"/><path d="M1241.3 276.7h137.9c0 76.1-61.8 137.9-137.9 137.9V276.7Z"/><path d="M1517 276.7v137.9c-76.1 0-137.9-61.8-137.9-137.9H1517Zm-413.6-137.8h137.9c0 76.1-61.8 137.9-137.9 137.9V138.9Z"/><path d="M1103.4 1h137.9c0 76.1-61.8 137.9-137.9 137.9V1Z" fill-opacity=".3"/><path d="M1517 1h137.9c0 76.1-61.8 137.9-137.9 137.9V1Z"/></g><g opacity=".5" fill="currentColor"><path d="M482.599 276.7c38.1 0 68.9-30.9 68.9-68.9 0-38-30.9-68.9-68.9-68.9-38 0-68.9 30.9-68.9 68.9 0 38 30.8 68.9 68.9 68.9Zm413.7-137.8c38.1 0 68.9-30.9 68.9-68.9 0-38.1-30.9-68.9-68.9-68.9-38.1 0-68.9 30.9-68.9 68.9-.1 38 30.8 68.9 68.9 68.9Z"/><path d="M275.798 276.7h-137.9v137.9h137.9V276.7Z" fill-opacity=".3"/><path d="M827.298 1h-137.9v137.9h137.9V1Z" fill-opacity=".75"/><path d="M137.9 138.9v137.9H0c0-76.1 61.8-137.9 137.9-137.9Z" fill-opacity=".3"/><path d="M689.402 276.7v137.9h-137.8c0-76 61.8-137.9 137.8-137.9Z"/><path d="M827.298 276.7h-137.9V138.9c76.1 0 137.9 61.8 137.9 137.8Z" fill-opacity=".5"/><path d="M413.701 138.9h-137.9v137.9h137.9V138.9Z" fill-opacity=".75"/><path d="M689.402 138.9h-137.8v137.9h137.9l-.1-137.9Z" fill-opacity=".3"/><path d="M275.798 276.7h137.9c0 76.1-61.8 137.9-137.9 137.9V276.7Zm275.8 0v137.9c-76.1 0-137.9-61.8-137.9-137.9h137.9Zm-413.7-137.8h137.9c0 76.1-61.8 137.9-137.9 137.9V138.9Z"/><path d="M137.898 1h137.9c0 76.1-61.8 137.9-137.9 137.9V1Z" fill-opacity=".3"/><path d="M551.602 1h137.9c0 76.1-61.8 137.9-137.9 137.9V1Z"/></g><path d="M1033.4 139.2 1102.1 1H964.701l68.699 138.2ZM758.501 415l68.7-138.3h-137.4l68.7 138.3Z" class="fill-primary"/></g><defs><clipPath id="a"><path fill="#fff" d="M0 0h1930.7v415H0z"/></clipPath></defs></svg>