<svg width="966" height="415" viewBox="0 0 966 415" fill="none" xmlns="http://www.w3.org/2000/svg"><path d="M483.402 275.7c38.1 0 68.9-30.9 68.9-68.9 0-38-30.9-68.9-68.9-68.9-38.1 0-69 30.9-69 68.9 0 38 30.9 68.9 69 68.9Zm413.7-137.8c38.1 0 68.9-30.9 68.9-68.9 0-38.1-30.9-68.9-68.9-68.9-38.1 0-68.9 30.9-68.9 68.9-.1 38 30.8 68.9 68.9 68.9Z" fill="currentColor"/><path d="M276.599 275.7h-137.9v137.9h137.9V275.7Z" fill="currentColor" fill-opacity=".3"/><path d="M828.099 0h-137.9v137.9h137.9V0Z" fill="currentColor" fill-opacity=".75"/><path d="M138.701 137.9v137.9H.801c0-76.1 61.8-137.9 137.9-137.9Z" fill="currentColor" fill-opacity=".3"/><path d="M690.201 275.7v137.9h-137.9c0-76 61.9-137.9 137.9-137.9Z" fill="currentColor"/><path d="M828.099 275.7h-137.9V137.9c76.1 0 137.9 61.8 137.9 137.8Z" fill="currentColor" fill-opacity=".5"/><path d="M414.501 137.9H276.602v137.9h137.899V137.9Z" fill="currentColor" fill-opacity=".75"/><path d="M690.201 137.9h-137.9v137.9h137.9V137.9Z" fill="currentColor" fill-opacity=".3"/><path d="M276.602 275.7h137.899c0 76.1-61.799 137.9-137.899 137.9V275.7Z" fill="currentColor"/><path d="M552.299 275.7v137.9c-76.1 0-137.9-61.8-137.9-137.9h137.9Zm-413.6-137.8h137.9c0 76.1-61.8 137.9-137.9 137.9V137.9Z" fill="currentColor"/><path d="M138.699 0h137.9c0 76.1-61.8 137.9-137.9 137.9V0Z" fill="currentColor" fill-opacity=".3"/><path d="M552.301 0h137.9c0 76.1-61.8 137.9-137.9 137.9V0Z" fill="currentColor"/><path d="M137.4 0 68.7 138.2 0 0h137.4ZM827.701 276l-68.7 138.2-68.7-138.2h137.4Z" class="fill-primary"/></svg>