<svg xmlns="http://www.w3.org/2000/svg" fill="none" viewBox="0 0 637 80"><path fill="currentColor" d="M203.098 76.6V42.3c0-14.6-8.8-23.7-22.1-23.7-6.9 0-12.5 2.5-16.4 7.2-.8.9-2.2.8-2.9-.1-3.5-4.5-8.6-7.1-15.2-7.1-5.5 0-10.1 1.6-13.6 4.8-1.2 1.1-3.1.2-3.1-1.4 0-1.1-.9-1.9-1.9-1.9h-8.9c-1.1 0-1.9.9-1.9 1.9v54.6c0 1.1.9 1.9 1.9 1.9h8.9c1.1 0 1.9-.9 1.9-1.9V45.8c0-10.6 5.8-15.4 12.9-15.4 6.9 0 11 4.5 11 12.7v33.5c0 1.1.9 1.9 1.9 1.9h8.9c1.1 0 1.9-.9 1.9-1.9V45.8c0-10.6 5.2-15.4 12.7-15.4 6.9 0 11.3 4.5 11.3 12.7v33.5c0 1.1.9 1.9 1.9 1.9h8.9c1.1 0 1.9-.9 1.9-1.9ZM303.998 55.2l20.1 22.6c.3.4.8.6 1.5.7h10c1.6 0 2.5-1.9 1.4-3.1l-22.7-25.4c-.6-.7-.6-1.8 0-2.5l21.8-24.2c1.1-1.2.2-3.1-1.4-3.1h-10.4c-.5 0-1 .2-1.4.6l-18.8 21.4c-1.2 1.3-3.3.5-3.3-1.2V1.9c0-1.1-.9-1.9-1.9-1.9h-8.9c-1.1 0-1.9.9-1.9 1.9v74.7c0 1.1.9 1.9 1.9 1.9h8.8c1.1 0 1.9-.9 1.9-1.9V56.4c0-1.7 2.2-2.5 3.3-1.2ZM564.698 0h-8.9c-1 0-1.9.8-1.9 1.9v74.7c0 1.1.9 1.9 1.9 1.9h8.9c1.1 0 1.9-.9 1.9-1.9V1.9c0-1.1-.9-1.9-1.9-1.9Z"/><path fill="currentColor" fill-rule="evenodd" d="M272.398 20.1c1.2 0 2 .8 2 1.9v54.6c0 1-.8 1.9-1.9 1.9h-8.9c-1 0-1.9-.8-1.9-1.9V75c0-1.6-2-2.5-3.2-1.3-4.3 4-10.1 6.3-17.3 6.3-15.9 0-29-13.4-29-30.7 0-17.4 13.2-30.7 29-30.7 7.2 0 13 2.3 17.3 6.3 1.2 1.1 3.1.3 3.1-1.3V22c0-1 .8-1.9 1.9-1.9h8.9Zm-29 10.5c10.5 0 18.4 7.9 18.4 18.7 0 10.8-7.9 18.6-18.4 18.7-10.5 0-18.4-7.8-18.4-18.7 0-10.9 7.9-18.7 18.4-18.7ZM543.498 49.3c0 17.3-13.2 30.7-29 30.7-7.2 0-13-2.3-17.3-6.3-1.2-1.1-3.2-.3-3.2 1.3v1.6c0 1-.8 1.9-1.9 1.9h-8.9c-1 0-1.9-.8-1.9-1.9V1.9c0-1 .8-1.9 1.9-1.9h8.9c1 0 1.9.8 1.9 1.9v21.7c0 1.6 1.9 2.5 3.1 1.3 4.3-4 10.1-6.3 17.3-6.3 16 0 29.1 13.3 29.1 30.7Zm-31-18.7c10.5 0 18.4 7.9 18.4 18.7 0 10.8-7.9 18.6-18.4 18.7-10.5 0-18.4-7.8-18.4-18.7 0-10.9 7.9-18.7 18.4-18.7ZM465.798 20.1c1.2 0 2 .8 2 1.9v54.6c0 1-.8 1.9-1.9 1.9h-8.9c-1 0-1.9-.8-1.9-1.9V75c0-1.6-2-2.5-3.2-1.3-4.3 4-10.1 6.3-17.3 6.3-15.9 0-29-13.4-29-30.7 0-17.4 13.2-30.7 29-30.7 7.2 0 13 2.3 17.3 6.3 1.2 1.1 3.1.3 3.1-1.3V22c0-1 .8-1.9 1.9-1.9h8.9Zm-29 10.5c10.5 0 18.4 7.9 18.4 18.7 0 10.8-7.9 18.6-18.4 18.7-10.5 0-18.4-7.8-18.4-18.7 0-10.9 7.9-18.7 18.4-18.7ZM371.098 68.4c6.3 0 11.1-2.5 14.1-6 .6-.7 1.6-.9 2.4-.4l7.2 4.2c1 .6 1.2 1.9.5 2.8-5.4 6.9-13.7 11-24.3 11-19.2 0-31.7-13.2-31.7-30.7 0-17.3 12.5-30.7 30.8-30.7 17.4 0 29.3 14 29.3 30.8 0 1.2-.1 2.4-.2 3.6-.1.9-.9 1.6-1.9 1.6h-42.3c-1.3 0-2.2 1.3-1.8 2.5 2.6 7.5 9.4 11.3 17.9 11.3Zm14.9-26.4c.3 1.2-.6 2.4-1.8 2.4 0 0-29.5 0-29.5.1-1.3 0-2.2-1.3-1.8-2.5 2.4-7.3 8.5-11.9 17-11.9 6.9 0 13.7 3.6 16.1 11.9ZM608.698 68.4c6.3 0 11.1-2.5 14.1-6 .6-.7 1.6-.9 2.4-.4l7.2 4.2c1 .6 1.2 1.9.5 2.8-5.4 6.9-13.7 11-24.3 11-19.2 0-31.7-13.2-31.7-30.7 0-17.3 12.5-30.7 30.8-30.7 17.4 0 29.3 14 29.3 30.8 0 1.199-.1 2.397-.2 3.596V53c-.1.9-.9 1.6-1.9 1.6h-42.3c-1.3 0-2.2 1.3-1.8 2.5 2.6 7.5 9.4 11.3 17.9 11.3Zm14.9-26.4c.3 1.2-.6 2.4-1.8 2.4 0 0-29.5 0-29.5.1-1.3 0-2.2-1.3-1.8-2.5 2.4-7.3 8.5-11.9 17-11.9 6.9 0 13.7 3.6 16.1 11.9Z" clip-rule="evenodd"/><path fill="#21A079" d="M.5.5 1.7.1 39.3 37l-.1 2.2v39.2C17.6 78.4 0 60.9 0 39.2V1.9C0 1.4.2.9.5.5Z"/><path fill="#214955" d="m39.2 39.2 2.9 1.1L77.7 75l.2 2.9c-.3.3-.8.5-1.3.5H39.2V39.2Z"/><path fill="#0D3B44" d="M78.4 39.2v37.4c0 .5-.2 1-.5 1.3L39.2 39.2h39.2Z"/><path fill="#1D8F6C" d="M1.9 0h37.4C61 0 78.5 17.6 78.5 39.2H39.2L.5.5C.9.2 1.4 0 1.9 0Z"/></svg>