<svg width="854" height="1024" viewBox="0 0 854 1024" fill="none" xmlns="http://www.w3.org/2000/svg"><g clip-path="url(#a)" fill="currentColor"><g opacity=".5"><path d="M427.5 512c47.2 0 85.5-38.3 85.5-85.5S474.7 341 427.5 341 342 379.3 342 426.5s38.3 85.5 85.5 85.5ZM172 512H1v171h171V512Z" fill-opacity=".4"/><path d="M683 511v171H512c0-94.4 76.6-171 171-171Z" fill-opacity=".6"/><path d="M854 512H683V341c94.4 0 171 76.6 171 171Z" fill-opacity=".4"/><path d="M683 341H512v171h171V341ZM171 512h171c0 94.4-76.6 171-171 171V512Z" fill-opacity=".2"/><path d="M512 512v171c-94.4 0-171-76.6-171-171h171Z" fill-opacity=".8"/><path d="M1 341h171c0 94.4-76.6 171-171 171V341Z" fill-opacity=".2"/></g><g opacity=".5"><path d="M426.5 170c-47.2 0-85.5 38.3-85.5 85.5s38.3 85.5 85.5 85.5 85.5-38.3 85.5-85.5-38.3-85.5-85.5-85.5Z" fill-opacity=".8"/><path d="M682 171h171V0H682v171Z" fill-opacity=".2"/><path d="M0 170h171v171C76.6 341 0 264.4 0 170Z" fill-opacity=".4"/><path d="M511 341h171V170H511v171Z" fill-opacity=".6"/><path d="M170 341h171V170H170v171Z" fill-opacity=".2"/><path d="M341 171V0c94.4 0 171 76.6 171 171H341Z" fill-opacity=".4"/><path d="M853 341H682c0-94.4 76.6-171 171-171v171Z" fill-opacity=".6"/></g><g opacity=".5"><path d="M682 854h171V683H682v171ZM0 853h171v171C76.6 1024 0 947.4 0 853Z" fill-opacity=".4"/><path d="M511 1024h171V853H511v171Z" fill-opacity=".6"/><path d="M170 1024h171V853H170v171Z" fill-opacity=".2"/><path d="M341 854V683c94.4 0 171 76.6 171 171H341Z" fill-opacity=".4"/><path d="M853 1024H682c0-94.4 76.6-171 171-171v171Z" fill-opacity=".2"/></g></g><defs><clipPath id="a"><path fill="#fff" d="M0 0h854v1024H0z"/></clipPath></defs></svg>