<svg xmlns="http://www.w3.org/2000/svg" fill="none" viewBox="0 0 300 85"><path fill="#A71930" fill-rule="evenodd" d="M33.452.911c-15.171 2.038-26.2 9.334-31.28 20.69C.762 24.754.439 29.835.144 53.413c-.321 25.638-.202 28.186 1.379 29.5 2.144 1.784 22.604 2.596 26.629 1.058l2.7-1.032.3-24.522.3-24.523 2.77-2.771 2.77-2.771 20.23-.5c11.127-.276 20.793-.864 21.48-1.31.885-.573 1.25-4.3 1.25-12.775 0-11.923-.01-11.968-2.565-12.94C74.373-.32 42.147-.259 33.452.91Zm94.5.08c-14.391.876-21.845 3.6-29.335 10.716-7.323 6.96-8.104 9.558-8.488 28.234-.385 18.742.33 22.798 5.129 29.09 8.22 10.776 17.939 14.675 38.694 15.523 22.068.903 34.777-2.1 44.001-10.394 8.985-8.078 9.499-9.8 9.499-31.808 0-17.573-.163-19.304-2.166-23.045-2.142-4.002-9.278-11.297-12.94-13.23C163.87 1.602 147.919-.225 127.952.99ZM238.299.946c-13.024 2.177-23.302 9.011-27.346 18.186-1.518 3.441-9.859 39.975-12.549 54.962-1.081 6.023.027 8.519 4.306 9.708 4.677 1.297 16.29 1.361 19.591.106 3.087-1.172 2.888-.484 7.106-24.556 4.29-24.48 5.022-27.131 8.441-30.55 4.835-4.835 16.501-5.093 21.484-.474 3.263 3.024 4.851 8.814 9.031 32.918 2.279 13.14 3.993 20.437 5.049 21.494 1.903 1.904 15.094 2.8 20.54 1.398 6.657-1.716 6.699-3.089.928-30.434-2.817-13.349-5.976-27.035-7.02-30.415-3.66-11.849-13.225-19.41-27.858-22.02-8.449-1.508-14.105-1.593-21.703-.323ZM153.33 22.834c2.132.65 4.945 2.25 6.25 3.555 2.268 2.268 2.372 2.98 2.372 16.243 0 13.317-.095 13.96-2.38 16.108-3.513 3.3-10.823 5.111-20.62 5.111s-17.107-1.812-20.62-5.111c-2.277-2.14-2.38-2.817-2.38-15.629 0-13.956.57-16.412 4.273-18.422 6.812-3.698 23.919-4.655 33.105-1.855ZM40.202 44.343c-3.221 1.4-3.25 1.473-3.25 8.388 0 4.867.453 7.431 1.499 8.477 1.847 1.848 11.12 3.106 15.614 2.119 6.325-1.39 6.887-2.227 6.887-10.267v-7.31l-3.468-1.45c-4.37-1.825-13.033-1.804-17.282.043Zm202.436-.475c-4.936 1.481-5.686 2.746-5.686 9.582 0 5.708.26 6.525 2.549 8.025 1.759 1.154 4.687 1.67 9.451 1.67 9.839 0 12-1.6 12-8.883 0-3.047-.455-6.392-1.012-7.432-1.772-3.311-10.921-4.877-17.302-2.962Z" clip-rule="evenodd"/></svg>