<svg xmlns="http://www.w3.org/2000/svg" fill="none" viewBox="0 0 279 118"><path fill="#02467E" fill-rule="evenodd" d="M1.299 1.2c-1.732 1.732-1.732 112.868 0 114.6 1.65 1.65 22.95 1.65 24.6 0 .854-.854 1.2-6.995 1.2-21.277 0-16.554.273-20.468 1.557-22.3C30.177 70.05 30.671 70 50.433 70c25.395 0 24.666.343 24.666-11.622C75.099 45.185 76.586 46 52.518 46 32.075 46 32 45.992 29.554 43.545c-2.023-2.022-2.455-3.441-2.455-8.065 0-5.485 1.191-9.24 3.4-10.715.605-.404 20.337-.741 43.85-.75 41.427-.015 42.812.047 44.75 1.985 1.938 1.938 2 3.333 2 45.3 0 32.344.304 43.604 1.2 44.5 1.65 1.65 22.95 1.65 24.6 0 .896-.896 1.2-11.948 1.2-43.566 0-42.128.231-45.353 3.4-47.469.605-.404 18.987-.741 40.85-.75 38.427-.014 39.817.052 41.75 1.985 4.079 4.079 5.219 2.381-29.816 44.349-9.573 11.466-18.027 22.041-18.788 23.5-2.027 3.884-1.9 19.505.175 21.58 1.382 1.381 6.933 1.571 45.878 1.571 39.993 0 44.44-.161 45.679-1.654.937-1.129 1.372-4.484 1.372-10.58 0-7.683-.271-9.125-1.941-10.347C275.123 93.297 270.195 93 253.13 93c-24.479 0-26.031-.389-26.031-6.523 0-3.356 8.307-14.006 45.119-57.845 4.991-5.943 5.858-7.6 6.447-12.313.799-6.395.11-12.8-1.599-14.858C276.014.193 257.817 0 139.177 0 34.205 0 2.221.278 1.299 1.2Z" clip-rule="evenodd"/></svg>